<?xml version="1.0" standalone="no"?>
<!DOCTYPE svg PUBLIC "-//W3C//DTD SVG 20010904//EN"
 "http://www.w3.org/TR/2001/REC-SVG-20010904/DTD/svg10.dtd">
<svg version="1.0" xmlns="http://www.w3.org/2000/svg"
 width="1024.000000pt" height="1024.000000pt" viewBox="0 0 1024.000000 1024.000000"
 preserveAspectRatio="xMidYMid meet">
<metadata>
Created by potrace 1.11, written by Peter Selinger 2001-2013
</metadata>
<g transform="translate(0.000000,1024.000000) scale(0.100000,-0.100000)"
fill="#000000" stroke="none">
<path d="M0 5120 l0 -5120 5120 0 5120 0 0 5120 0 5120 -5120 0 -5120 0 0
-5120z m4979 -138 c318 -61 602 -202 791 -392 185 -185 301 -417 345 -685 19
-116 19 -338 0 -448 -99 -570 -550 -940 -1240 -1017 -49 -5 -267 -10 -482 -10
l-393 0 0 -665 0 -665 -475 0 -475 0 0 1955 0 1956 908 -4 c882 -3 910 -4
1021 -25z m2591 -1274 c0 -803 4 -1338 10 -1393 20 -179 75 -309 169 -398 108
-103 217 -140 416 -141 147 -1 207 11 310 59 130 62 215 177 261 350 17 66 18
150 21 1448 l3 1377 476 0 475 0 -4 -1372 c-4 -1347 -4 -1375 -25 -1483 -107
-559 -440 -909 -1002 -1050 -216 -55 -570 -72 -813 -40 -454 59 -807 261
-1021 582 -101 152 -158 297 -198 508 -21 108 -22 133 -25 1483 l-4 1372 476
0 475 0 0 -1302z"/>
<path d="M4000 3720 l0 -560 373 0 c401 0 431 3 545 55 29 13 79 49 111 80
105 100 145 207 144 390 -1 197 -50 332 -163 445 -38 38 -89 76 -122 92 -109
53 -152 58 -535 58 l-353 0 0 -560z"/>
</g>
</svg>
