<?xml version="1.0" standalone="no"?>
<!DOCTYPE svg PUBLIC "-//W3C//DTD SVG 20010904//EN"
 "http://www.w3.org/TR/2001/REC-SVG-20010904/DTD/svg10.dtd">
<svg version="1.0" xmlns="http://www.w3.org/2000/svg"
 width="1000.000000pt" height="1000.000000pt" viewBox="0 0 1000.000000 1000.000000"
 preserveAspectRatio="xMidYMid meet">
<metadata>
Created by potrace 1.11, written by Peter Selinger 2001-2013
</metadata>
<g transform="translate(0.000000,1000.000000) scale(0.100000,-0.100000)"
fill="#000000" stroke="none">
<path d="M3859 8996 c-2 -2 -40 -7 -84 -10 -97 -8 -161 -15 -195 -21 -14 -3
-52 -9 -85 -15 -74 -12 -83 -14 -170 -35 -38 -9 -74 -18 -80 -19 -36 -8 -143
-42 -215 -68 -608 -219 -1051 -597 -1305 -1113 -109 -223 -175 -424 -200 -616
-3 -24 -10 -75 -15 -114 -10 -84 -7 -4004 3 -4055 4 -19 17 -84 28 -145 59
-316 218 -654 432 -920 59 -73 253 -264 322 -318 33 -26 65 -51 71 -56 9 -8
48 -34 120 -81 263 -173 676 -334 984 -384 19 -3 44 -7 55 -10 11 -2 47 -7 80
-11 33 -4 71 -9 85 -11 118 -15 357 -19 1305 -19 971 0 1176 3 1305 20 19 2
58 7 85 10 83 11 295 55 385 80 357 102 686 271 941 484 108 90 268 254 331
338 24 32 46 60 49 63 14 11 131 204 168 277 119 236 200 528 218 783 9 131 8
3803 -1 3918 -4 51 -9 100 -10 110 -2 9 -7 40 -10 67 -4 28 -22 109 -41 180
-92 355 -278 683 -532 940 -81 82 -204 191 -253 225 -12 8 -48 34 -81 58 -32
23 -63 42 -69 42 -5 0 -10 5 -10 10 0 6 -4 10 -9 10 -4 0 -48 23 -97 51 -191
110 -428 205 -660 263 -113 28 -257 58 -294 61 -34 2 -127 14 -170 22 -38 7
-2374 16 -2381 9z m2154 -536 c45 -7 96 -14 112 -15 17 -2 44 -6 60 -8 17 -3
53 -8 80 -12 70 -9 93 -12 150 -21 28 -4 61 -8 73 -9 16 -1 86 -64 213 -191
l190 -190 15 -89 c8 -50 19 -119 25 -155 5 -36 11 -72 14 -80 2 -8 7 -35 10
-60 3 -25 8 -53 11 -63 8 -26 7 -1275 -1 -1317 -3 -19 -8 -48 -11 -65 -3 -16
-7 -41 -9 -55 -2 -14 -14 -83 -25 -155 -12 -71 -23 -141 -25 -155 -5 -28 -372
-396 -396 -397 -23 0 -143 -14 -159 -18 -8 -2 -42 -6 -75 -9 -33 -4 -76 -8
-95 -11 -52 -7 -108 -14 -175 -21 -33 -4 -418 -8 -855 -8 l-795 -1 -2 -859
c-1 -472 -5 -861 -8 -864 -4 -4 -523 -6 -591 -3 -9 1 -12 623 -12 2421 l0
2419 62 3 c33 2 528 2 1099 2 755 -1 1061 -5 1120 -14z"/>
<path d="M4341 6913 l0 -938 772 1 c425 1 792 4 817 8 25 4 88 14 140 22 52 8
111 17 130 20 19 3 42 7 51 10 10 3 27 51 54 157 l38 152 2 550 c1 303 -2 566
-6 585 -4 19 -10 53 -13 75 -3 22 -8 51 -10 65 -2 14 -10 57 -16 96 l-13 71
-111 18 c-61 10 -127 19 -146 22 -19 2 -51 8 -70 13 -20 6 -365 10 -827 10
l-792 0 0 -937z"/>
</g>
</svg>
