<?xml version="1.0" standalone="no"?>
<!DOCTYPE svg PUBLIC "-//W3C//DTD SVG 20010904//EN"
 "http://www.w3.org/TR/2001/REC-SVG-20010904/DTD/svg10.dtd">
<svg version="1.0" xmlns="http://www.w3.org/2000/svg"
 width="1039.000000pt" height="1039.000000pt" viewBox="0 0 1039.000000 1039.000000"
 preserveAspectRatio="xMidYMid meet">
<metadata>
Created by potrace 1.11, written by Peter Selinger 2001-2013
</metadata>
<g transform="translate(0.000000,1039.000000) scale(0.100000,-0.100000)"
fill="#000000" stroke="none">
<path d="M3383 9711 c-306 -256 -524 -671 -578 -1098 -3 -24 -7 -60 -10 -80
-2 -21 -7 -79 -10 -128 l-5 -90 68 -72 67 -73 130 45 c578 198 904 208 1108
33 99 -84 194 -242 266 -438 27 -76 263 -919 264 -945 0 -12 -74 -181 -226
-510 -66 -144 -97 -213 -134 -295 -14 -30 -38 -82 -53 -115 -15 -33 -39 -85
-53 -115 -14 -30 -41 -89 -60 -130 -19 -41 -58 -127 -87 -190 -29 -63 -73
-158 -97 -210 -25 -52 -58 -122 -73 -155 -15 -33 -47 -100 -70 -150 -23 -49
-68 -146 -100 -215 -32 -69 -79 -170 -105 -225 -81 -171 -201 -425 -252 -535
-19 -41 -62 -131 -95 -200 -33 -69 -73 -152 -88 -185 -50 -109 -160 -340 -170
-357 -5 -10 -50 -102 -99 -205 -49 -104 -121 -255 -160 -336 l-71 -149 15 -51
16 -52 459 -193 460 -194 48 11 c26 7 52 15 59 19 12 8 218 483 412 952 67
162 126 304 131 315 49 113 70 166 70 177 0 8 4 18 9 23 4 6 25 53 46 105 20
52 42 106 48 120 5 14 11 30 12 35 2 6 12 30 23 55 11 25 39 95 62 155 24 61
49 124 56 140 7 17 35 89 63 160 27 72 55 144 62 160 7 17 13 35 15 40 2 6 65
170 140 367 137 355 138 356 168 360 53 6 63 0 76 -50 6 -26 14 -54 17 -62 4
-8 7 -19 8 -25 3 -11 38 -136 120 -430 31 -110 69 -247 85 -305 16 -58 59
-211 95 -340 36 -129 107 -381 156 -560 186 -672 235 -805 374 -1015 156 -236
392 -353 750 -372 l111 -6 69 61 c266 230 490 598 603 992 48 166 49 173 15
217 -15 21 -34 44 -40 51 -7 7 -19 22 -27 33 -14 20 -14 20 -117 0 -246 -48
-350 -60 -504 -57 -121 2 -150 6 -214 29 -124 44 -193 101 -260 215 -33 57
-55 104 -122 267 -22 53 -76 243 -164 575 -53 201 -106 396 -117 434 -11 38
-21 78 -23 88 -2 11 -7 29 -11 41 -5 12 -8 27 -9 32 0 6 -7 30 -14 55 -7 25
-41 153 -77 285 -35 132 -75 282 -89 332 -15 51 -28 101 -30 110 -2 10 -11 45
-20 78 -9 33 -27 101 -40 150 -13 50 -31 115 -39 145 -186 695 -384 1432 -392
1465 -7 31 -49 184 -75 275 -209 739 -518 1250 -916 1516 -219 147 -454 225
-724 239 l-79 4 -57 -48z"/>
<path d="M9242 2233 c-35 -7 -102 -78 -104 -110 -3 -63 7 -101 34 -131 13 -13
175 -176 361 -362 185 -186 337 -340 337 -342 0 -2 -2221 -4 -4935 -4 l-4935
1 0 -151 0 -150 4931 0 c2712 1 4932 -2 4934 -5 2 -3 -154 -162 -347 -355
-239 -239 -356 -362 -369 -390 -44 -97 32 -204 144 -204 19 0 49 10 68 23 19
13 253 243 521 511 523 523 519 519 504 603 -7 34 -63 94 -509 542 -287 287
-516 509 -534 517 -32 14 -56 15 -101 7z"/>
</g>
</svg>
